<?xml version="1.0" standalone="no"?>
<!DOCTYPE svg PUBLIC "-//W3C//DTD SVG 20010904//EN"
 "http://www.w3.org/TR/2001/REC-SVG-20010904/DTD/svg10.dtd">
<svg version="1.0" xmlns="http://www.w3.org/2000/svg"
 width="400.000000pt" height="823.000000pt" viewBox="0 0 400.000000 823.000000"
 preserveAspectRatio="xMidYMid meet">

<g transform="translate(0.000000,823.000000) scale(0.100000,-0.100000)"
fill="#000000" stroke="none">
<path d="M1948 7523 c7 -3 16 -2 19 1 4 3 -2 6 -13 5 -11 0 -14 -3 -6 -6z"/>
<path d="M2098 7523 c7 -3 16 -2 19 1 4 3 -2 6 -13 5 -11 0 -14 -3 -6 -6z"/>
<path d="M1775 7223 c15 -100 15 -113 0 -113 -8 0 -15 -5 -15 -12 0 -6 -10 -2
-22 9 -35 31 -56 40 -34 15 11 -12 17 -24 15 -26 -2 -2 -24 0 -49 4 -48 10
-112 12 -75 3 39 -10 33 -18 -13 -19 -26 -1 -50 4 -54 10 -6 8 -8 8 -8 0 0 -7
-17 -15 -37 -20 l-38 -7 30 -7 c28 -7 29 -8 5 -10 -14 -1 -30 -2 -36 -1 -6 1
-33 -10 -60 -24 -27 -14 -53 -25 -57 -25 -11 0 -127 -91 -127 -99 0 -3 -14
-22 -31 -41 -37 -42 -92 -147 -84 -160 3 -5 -8 -33 -25 -63 -16 -29 -27 -56
-24 -60 3 -3 -5 -41 -19 -84 -14 -43 -29 -96 -33 -118 -3 -22 -8 -47 -9 -55
-2 -8 -15 -41 -29 -72 -14 -32 -23 -64 -20 -72 3 -7 -1 -29 -8 -47 -8 -19 -15
-65 -17 -104 -1 -38 -7 -78 -13 -88 -6 -12 -6 -17 0 -13 13 8 22 -17 22 -57 0
-24 3 -28 10 -17 8 13 10 12 10 -3 0 -15 3 -16 20 -7 18 9 20 8 20 -15 0 -14
5 -25 11 -25 7 0 9 -10 7 -25 -3 -13 -2 -26 1 -27 3 -2 15 -37 25 -78 10 -41
25 -84 32 -96 10 -14 11 -29 5 -52 -6 -20 -6 -30 0 -27 5 4 9 -3 9 -15 0 -11
7 -37 16 -58 14 -34 16 -35 26 -18 6 11 9 48 6 90 -3 39 -2 91 1 116 l7 45 18
-60 c38 -125 76 -146 276 -153 74 -2 154 1 178 6 24 6 42 6 42 1 0 -5 6 -9 14
-9 8 0 36 35 62 78 66 107 71 112 114 112 44 0 45 -1 100 -110 66 -130 129
-227 150 -233 10 -3 27 1 37 9 10 7 26 14 35 14 10 0 22 9 28 20 9 18 8 20
-14 20 -40 0 -103 29 -121 56 -8 13 -14 24 -13 24 2 0 39 -7 83 -15 123 -22
272 -18 339 10 17 8 18 4 14 -42 -5 -51 -5 -51 15 -32 11 10 18 22 14 25 -3 4
0 13 8 21 11 10 12 20 5 32 -6 13 -4 25 7 41 14 20 17 21 25 5 9 -15 13 -12
34 19 13 19 24 39 24 44 0 5 7 16 16 23 16 13 16 1 11 -156 -3 -94 -11 -201
-18 -238 -9 -51 -9 -71 -1 -79 17 -17 25 -3 30 55 3 39 11 62 33 87 16 19 29
29 29 22 0 -6 -11 -22 -25 -34 -28 -24 -33 -48 -11 -48 8 0 16 -6 18 -12 3 -7
14 26 26 72 35 134 44 159 69 192 20 28 28 30 24 5 -1 -5 4 -7 11 -5 7 3 16
27 19 54 4 27 12 65 18 84 6 19 11 49 11 66 0 17 9 66 20 110 12 43 23 105 27
137 3 32 9 53 13 47 6 -10 15 138 13 216 -1 22 -12 65 -24 95 -12 30 -25 90
-29 134 -5 60 -17 103 -45 170 -22 50 -47 99 -57 111 -10 11 -25 42 -34 68 -9
26 -23 50 -30 53 -8 3 -14 11 -14 18 0 7 -7 18 -15 25 -8 7 -12 17 -8 23 3 5
1 7 -4 4 -10 -6 -48 18 -85 55 -9 9 -34 27 -55 38 -21 12 -60 35 -88 51 l-50
30 47 -5 c39 -5 46 -3 42 9 -4 8 -16 15 -28 15 -34 0 -96 20 -96 31 0 13 20
34 40 42 8 4 -34 5 -95 3 -67 -3 -111 -8 -113 -15 -4 -12 -32 -16 -32 -5 0 4
8 13 18 20 9 7 12 14 5 14 -6 0 -26 -12 -44 -27 -18 -16 -29 -22 -24 -14 6 11
4 13 -8 8 -21 -8 -21 1 -2 33 10 15 7 13 -7 -4 -13 -17 -32 -39 -44 -50 -11
-12 -23 -29 -27 -38 -3 -10 -14 -18 -22 -18 -9 0 -13 5 -10 10 3 6 1 10 -4 10
-12 0 -15 42 -5 53 4 3 7 24 8 47 3 48 -11 40 -17 -10 -2 -20 -5 -3 -7 40 -2
41 -5 62 -7 45 -3 -16 -10 -36 -16 -43 -6 -7 -10 -42 -9 -78 0 -48 -3 -64 -13
-64 -8 0 -17 5 -21 12 -4 7 -3 8 4 4 8 -5 12 2 12 18 0 14 -4 26 -10 26 -5 0
-10 -6 -10 -12 0 -9 -4 -8 -10 2 -8 12 -10 12 -10 -5 -1 -19 -1 -19 -11 -2 -6
9 -7 26 -4 37 4 11 2 20 -4 20 -6 0 -11 10 -11 23 0 13 -7 32 -15 43 -8 10
-15 29 -15 42 0 15 -6 22 -20 22 -16 0 -19 -5 -15 -27z m235 -631 c8 -1 33 -5
55 -11 22 -5 61 -13 87 -19 99 -20 231 -127 289 -235 33 -61 34 -63 32 -182
l-2 -120 54 -112 c30 -62 55 -116 55 -121 0 -5 -29 -2 -64 6 -60 14 -66 18
-85 57 -11 23 -39 56 -62 74 -22 19 -36 36 -31 40 6 3 -21 6 -58 6 -38 0 -71
-3 -74 -6 -4 -3 -26 -4 -51 -1 -25 2 -59 -1 -75 -7 -18 -6 -28 -6 -25 -1 10
17 -4 11 -24 -9 -11 -11 -36 -24 -57 -30 -20 -5 -44 -17 -53 -25 -9 -8 -43
-16 -76 -19 -54 -4 -75 0 -150 29 -11 4 -27 8 -35 10 -8 2 -31 21 -50 43 -29
33 -47 44 -98 57 -35 8 -76 13 -92 9 -16 -3 -38 -1 -50 5 -23 12 -84 4 -75
-10 3 -5 -6 -17 -21 -27 -24 -15 -25 -17 -8 -23 17 -7 17 -8 -3 -14 -13 -4
-23 -14 -23 -21 0 -19 69 -38 86 -24 7 5 24 7 38 3 15 -3 32 -1 40 5 11 9 17
8 29 -4 9 -8 20 -15 25 -15 6 0 12 -7 15 -14 5 -13 -8 -14 -81 -9 -48 3 -89 9
-92 12 -9 10 -32 12 -26 2 9 -13 -2 -18 -60 -26 l-51 -6 34 118 c18 65 40 161
47 213 7 52 23 115 35 140 24 51 114 165 137 174 9 3 40 22 70 42 51 34 58 36
141 36 94 1 166 -9 158 -22 -3 -4 2 -11 11 -14 16 -6 103 29 115 46 3 5 16 10
27 11 12 1 22 5 22 11 0 5 8 2 18 -6 9 -8 24 -16 32 -16z m233 -749 c-13 -2
-35 -2 -50 0 -16 2 -5 4 22 4 28 0 40 -2 28 -4z m-733 -12 c40 -8 36 -9 -40
-10 -47 -1 -105 -6 -130 -11 -51 -10 -78 4 -39 19 29 12 147 13 209 2z m-300
-24 c0 -2 -10 -12 -21 -23 -22 -19 -22 -19 -10 4 10 18 31 31 31 19z m1129
-15 c33 -7 62 -35 49 -47 -3 -3 -33 3 -67 15 -42 14 -86 20 -146 20 -82 0
-115 14 -57 23 33 6 174 -1 221 -11z m-674 -12 c-3 -5 -3 -16 1 -22 6 -9 10
-5 14 11 5 23 6 23 23 7 32 -32 14 -143 -38 -231 -35 -61 -81 -77 -215 -76
-170 1 -239 21 -261 79 -6 15 -16 55 -22 90 -9 53 -9 65 3 72 24 15 39 12 65
-16 13 -14 36 -27 52 -28 25 -3 28 -7 31 -45 4 -55 25 -49 32 9 5 42 6 43 45
47 21 2 41 6 43 8 2 2 -12 11 -32 20 -38 18 -47 39 -21 49 8 3 15 1 15 -4 0
-4 12 -22 26 -39 14 -17 23 -35 20 -40 -4 -5 3 -13 14 -16 17 -5 19 -10 9 -21
-16 -19 -8 -18 55 11 75 34 78 45 11 40 -38 -3 -54 -1 -49 7 5 7 33 8 86 4 78
-6 79 -6 78 16 -4 47 0 78 11 78 5 0 7 -4 4 -10z m825 -129 c0 -88 -15 -135
-55 -179 l-33 -37 -139 0 c-107 0 -150 4 -190 18 -68 24 -109 70 -119 134 -3
26 -10 55 -14 63 -4 8 -10 27 -14 43 -5 21 -3 27 10 27 29 0 72 -32 67 -49 -4
-14 2 -16 33 -13 25 3 35 1 30 -7 -4 -6 -14 -11 -22 -11 -20 0 -18 -36 4 -46
9 -4 42 -8 72 -9 30 -1 75 -6 100 -11 52 -12 71 -9 63 12 -3 7 -9 11 -14 8 -5
-3 -9 1 -9 9 0 21 59 29 120 16 28 -6 56 -7 60 -3 17 18 29 86 19 111 -14 36
-11 41 11 14 16 -18 20 -38 20 -90z m-693 77 c-3 -8 -6 -5 -6 6 -1 11 2 17 5
13 3 -3 4 -12 1 -19z m350 -70 c-7 -4 -19 -8 -27 -8 -13 0 -13 1 0 10 13 8 13
11 1 19 -8 5 -10 14 -6 21 6 9 13 6 26 -11 13 -17 14 -26 6 -31z m424 -80
c-14 -41 -14 -43 6 -27 15 13 15 12 4 -9 -7 -12 -16 -20 -22 -16 -5 3 -17 0
-25 -7 -25 -21 -26 -3 -4 72 l22 73 15 -28 c11 -21 12 -34 4 -58z m-364 66
c-3 -3 -12 -4 -19 -1 -8 3 -5 6 6 6 11 1 17 -2 13 -5z"/>
<path d="M1420 5610 c0 -5 5 -10 10 -10 6 0 10 5 10 10 0 6 -4 10 -10 10 -5 0
-10 -4 -10 -10z"/>
<path d="M1861 7154 c0 -11 3 -14 6 -6 3 7 2 16 -1 19 -3 4 -6 -2 -5 -13z"/>
<path d="M1730 7136 c0 -2 7 -9 15 -16 9 -7 15 -8 15 -2 0 5 -7 12 -15 16 -8
3 -15 4 -15 2z"/>
<path d="M1617 5373 c-4 -3 -7 -13 -7 -22 1 -13 3 -13 11 2 11 19 8 33 -4 20z"/>
<path d="M1829 5282 c-45 -33 -73 -41 -94 -26 -30 22 -53 17 -70 -16 -18 -34
-27 -37 -49 -14 -15 14 -16 13 -16 -6 0 -22 61 -89 83 -91 107 -8 117 -6 117
26 0 13 4 26 9 29 11 7 22 -19 16 -37 -4 -9 9 -13 42 -13 27 -1 68 -2 92 -3
35 -2 49 3 72 25 37 35 40 82 7 80 -13 0 -32 -11 -43 -23 -23 -26 -40 -30 -32
-9 9 23 -67 96 -101 96 -5 0 -20 -8 -33 -18z"/>
<path d="M2450 5284 c0 -8 5 -12 10 -9 6 3 10 10 10 16 0 5 -4 9 -10 9 -5 0
-10 -7 -10 -16z"/>
<path d="M2041 5074 c0 -11 3 -14 6 -6 3 7 2 16 -1 19 -3 4 -6 -2 -5 -13z"/>
<path d="M1605 5071 c-3 -6 -19 -8 -35 -6 -16 2 -29 0 -29 -3 3 -20 -3 -30
-21 -35 -21 -6 -28 -27 -8 -27 6 0 0 -12 -14 -27 -26 -28 -49 -91 -28 -78 5 3
10 -1 10 -9 0 -17 23 -16 125 5 59 12 333 21 367 12 15 -4 14 -8 -10 -27 -30
-26 -85 -56 -101 -56 -6 0 -7 8 -4 18 6 15 4 15 -9 4 -16 -13 -68 -8 -134 13
-18 6 -22 2 -27 -30 -5 -28 -2 -42 14 -58 10 -11 17 -28 14 -38 -10 -32 26
-44 168 -52 55 -4 81 10 126 67 36 45 39 66 11 73 -19 5 -19 7 -3 33 11 19 27
30 52 34 56 9 74 7 68 -7 -3 -7 1 -21 9 -32 13 -17 15 -17 32 -2 10 9 24 17
30 17 7 0 12 7 12 16 0 14 -2 15 -17 3 -15 -12 -15 -11 1 13 20 31 15 59 -17
89 -12 11 -22 25 -22 32 0 15 -49 40 -53 27 -2 -6 -10 -10 -18 -10 -22 0 -16
-16 11 -28 17 -8 25 -20 25 -37 0 -15 -4 -24 -10 -20 -5 3 -10 13 -10 21 0 8
-5 14 -11 14 -6 0 -17 7 -26 15 -8 8 -19 12 -25 9 -7 -4 -4 -10 6 -16 9 -5 16
-13 16 -18 0 -17 -26 -11 -71 14 -36 21 -44 22 -56 10 -17 -16 -51 -18 -73 -4
-13 8 -13 10 2 10 9 0 19 4 22 9 7 10 -33 3 -49 -9 -16 -11 -118 -19 -140 -11
-19 8 -19 8 0 19 39 23 1 11 -51 -15 -29 -15 -57 -24 -60 -20 -10 10 17 88 27
81 5 -3 9 -1 9 5 0 14 -18 23 -25 12z m-66 -107 c-9 -11 -15 -12 -23 -4 -8 8
-7 13 4 20 20 12 33 1 19 -16z"/>
<path d="M2571 5002 c-14 -43 -29 -72 -37 -72 -8 0 -14 -8 -14 -19 0 -10 -7
-24 -15 -31 -10 -9 -15 -9 -15 -1 0 6 -4 11 -10 11 -5 0 -10 -9 -10 -20 0 -21
-8 -34 -44 -70 -22 -22 -72 -27 -78 -8 -3 8 -9 8 -22 1 -14 -8 -23 -6 -38 9
-15 15 -23 17 -31 9 -14 -14 -30 -14 -22 -1 3 6 -1 13 -10 16 -24 10 -46 -25
-41 -63 3 -18 0 -33 -5 -33 -6 0 -7 5 -4 10 3 6 1 10 -4 10 -6 0 -11 -11 -11
-25 0 -14 5 -24 11 -23 6 2 13 -4 14 -12 2 -8 4 -19 6 -25 8 -24 -27 -74 -66
-95 -32 -18 -49 -21 -71 -15 -16 5 -40 9 -54 10 -14 1 -40 5 -57 9 -22 4 -33
2 -33 -5 0 -6 -7 -8 -17 -5 -9 4 -20 1 -24 -6 -7 -10 -12 -10 -28 -1 -16 10
-22 9 -35 -10 -15 -21 -16 -21 -26 -4 -6 9 -15 15 -21 12 -5 -4 -9 -1 -9 5 0
6 -5 8 -12 4 -6 -4 -22 -8 -35 -10 -19 -2 -23 1 -18 17 10 29 -5 23 -42 -18
-18 -21 -33 -32 -33 -24 0 9 -9 12 -30 9 -23 -3 -30 -1 -26 9 3 7 -1 13 -9 13
-8 0 -15 4 -15 8 0 4 -16 14 -36 21 -31 11 -38 11 -55 -5 -16 -14 -19 -15 -14
-2 4 10 -1 17 -15 21 -12 3 -19 10 -15 16 3 6 0 11 -9 11 -8 0 -16 5 -18 12
-2 6 -15 12 -29 14 -13 1 -27 3 -31 3 -4 1 -4 9 -1 19 6 14 4 15 -8 5 -27 -21
-102 150 -139 317 -9 40 -10 39 -15 -12 -2 -21 -1 -38 3 -38 4 0 8 -26 10 -58
1 -31 7 -58 12 -60 5 -2 12 -20 16 -40 4 -20 17 -59 30 -87 l23 -50 -23 -20
c-13 -11 -46 -47 -74 -81 -46 -55 -57 -63 -122 -84 -83 -27 -172 -83 -212
-133 -15 -19 -46 -44 -70 -57 -24 -12 -53 -31 -65 -42 -24 -22 -67 -114 -59
-127 3 -4 -34 -22 -82 -40 -149 -56 -327 -155 -465 -259 l-57 -43 0 -1553 c0
-1666 -3 -1578 50 -1718 29 -78 106 -194 175 -263 69 -69 185 -146 263 -175
141 -53 146 -54 528 -58 l361 -3 7 40 c6 42 26 66 26 32 0 -11 -4 -23 -10 -26
-5 -3 -10 -15 -10 -26 0 -27 35 -25 55 4 l15 22 6 -22 c5 -17 14 -23 33 -23
22 0 27 5 29 29 2 24 -3 33 -25 43 -17 8 -27 21 -25 30 3 18 -31 42 -42 31 -4
-4 -5 9 -4 28 3 28 -1 34 -19 37 -17 3 -21 9 -18 30 1 15 3 37 4 48 0 12 8 25
16 28 13 5 15 -2 9 -44 l-6 -49 26 12 c29 13 33 32 12 56 -13 15 -10 65 7 126
10 37 37 47 37 14 0 -12 8 -23 19 -26 14 -3 26 -27 44 -81 21 -66 22 -79 10
-89 -18 -14 -13 -48 7 -48 9 0 16 11 18 27 2 14 10 32 18 38 8 7 14 20 14 29
0 10 16 32 35 51 34 33 36 33 49 15 12 -16 16 -17 30 -6 9 7 16 19 16 26 0 7
7 16 16 19 22 8 24 8 24 -8 0 -8 5 -18 10 -21 16 -10 39 13 33 33 -2 10 5 26
16 36 25 23 26 39 6 56 -18 15 -20 81 -2 99 6 6 12 26 12 44 0 26 5 33 23 35
19 3 22 9 19 36 -2 18 -15 48 -29 67 -24 32 -68 112 -68 123 0 3 7 3 15 0 24
-10 36 5 24 27 -10 20 -11 20 -30 3 -18 -16 -19 -16 -19 7 0 14 6 31 13 38 10
10 8 16 -11 28 -12 9 -22 26 -22 39 0 23 -30 41 -50 29 -7 -5 -54 11 -86 29
-1 1 -5 16 -9 33 -6 29 -4 33 15 33 25 0 38 26 21 43 -10 9 -17 7 -32 -12 -10
-13 -19 -32 -19 -42 0 -10 -4 -19 -10 -19 -5 0 -10 -7 -10 -15 0 -8 -9 -19
-19 -25 -11 -5 -27 -31 -36 -57 -10 -27 -22 -61 -28 -76 -14 -39 -70 -81 -97
-72 -18 6 -20 13 -16 46 2 22 10 46 16 54 7 8 9 27 4 49 -6 34 -5 36 17 34 19
-2 25 2 27 21 3 20 0 23 -18 18 -16 -4 -20 -2 -16 11 2 9 8 33 12 52 8 40 33
79 52 80 6 0 12 -7 12 -15 0 -8 9 -15 20 -15 11 0 23 7 26 15 8 19 23 19 45 0
15 -14 18 -14 33 1 14 14 22 15 43 5 19 -9 29 -9 39 0 8 6 26 9 41 6 15 -3 34
0 44 6 11 7 28 7 50 1 29 -9 34 -14 31 -36 -3 -33 17 -47 34 -23 7 10 20 15
29 12 19 -8 20 -43 0 -51 -19 -7 -20 -32 -1 -43 20 -12 28 -93 10 -100 -19 -7
-18 -42 1 -49 10 -4 15 -20 15 -49 0 -29 -5 -45 -15 -49 -21 -8 -19 -33 5 -46
25 -14 29 -94 5 -104 -22 -8 -18 -37 5 -43 16 -4 20 -14 20 -53 0 -33 -5 -50
-15 -54 -9 -3 -15 -18 -15 -36 0 -23 -6 -33 -25 -40 -25 -10 -33 -34 -15 -45
14 -9 0 -36 -19 -33 -10 2 -17 -5 -19 -19 -2 -15 2 -23 11 -23 11 0 13 -10 9
-47 -2 -27 -9 -54 -15 -61 -6 -8 -5 -17 3 -27 16 -19 18 -19 -60 -34 -38 -7
-73 -21 -83 -32 -20 -22 -34 -24 -39 -7 -3 7 -12 9 -22 5 -14 -6 -17 -14 -12
-38 4 -23 2 -31 -13 -37 -10 -4 -31 -22 -46 -39 -27 -33 -27 -33 -4 -33 12 0
37 11 55 25 18 14 35 25 38 25 14 0 5 -30 -11 -39 -15 -9 -14 -10 11 -11 23 0
27 3 23 20 -3 11 -1 23 5 26 13 8 28 -15 21 -33 -5 -12 116 -13 778 -11 847 4
799 1 951 58 78 29 194 106 263 175 69 69 146 185 175 263 59 156 55 49 58
1494 l2 1327 -26 48 c-79 141 -241 359 -329 442 -63 58 -66 64 -56 89 27 69
24 95 -14 139 -33 39 -60 55 -185 111 -55 25 -390 146 -445 161 -34 9 -45 20
-73 69 -18 31 -38 64 -45 72 -26 33 -106 91 -168 120 -35 17 -71 35 -79 39 -8
5 -35 18 -58 29 -25 11 -39 23 -33 26 6 4 11 15 11 24 0 9 6 29 13 43 13 24
54 188 59 239 2 16 10 26 23 28 51 7 65 14 76 35 12 22 12 22 -9 4 -27 -24
-55 -18 -62 13 -5 21 -10 12 -29 -48z m-1166 -612 c-3 -5 2 -10 13 -10 11 0
39 -15 63 -33 78 -58 141 -90 226 -112 46 -12 80 -25 76 -29 -4 -4 3 -9 15
-13 12 -3 22 -9 22 -14 0 -5 7 -9 15 -9 8 0 15 8 15 18 1 15 2 14 12 -3 6 -11
17 -24 25 -28 7 -4 13 -17 13 -27 0 -17 7 -20 49 -20 66 0 74 -21 26 -67 -26
-25 -35 -42 -35 -67 l0 -34 53 0 c28 0 67 6 85 14 17 7 32 10 32 7 0 -4 13 6
29 21 15 15 32 26 37 25 18 -4 44 13 44 30 0 17 94 121 110 121 6 0 10 6 10
13 0 18 54 57 78 57 24 0 38 16 47 52 4 15 12 31 18 36 18 14 136 -38 161 -71
30 -41 33 -135 7 -222 -49 -164 -129 -281 -286 -419 -100 -87 -166 -126 -325
-191 -63 -26 -141 -60 -172 -76 -39 -20 -73 -29 -104 -29 -43 0 -51 4 -88 44
-23 24 -64 55 -91 69 -62 31 -95 64 -141 138 -33 56 -35 63 -41 178 -4 86 -2
121 6 121 6 0 11 -4 11 -9 0 -5 15 -14 33 -21 17 -6 40 -16 49 -21 10 -5 24
-9 32 -9 7 0 18 -6 24 -12 6 -8 34 -13 69 -13 56 1 58 2 55 25 -1 14 -6 34
-11 45 -5 11 -15 36 -21 56 -6 20 -22 47 -35 59 -14 13 -25 27 -25 32 0 5 -13
26 -30 46 -32 41 -157 295 -160 327 -3 26 -1 35 6 35 3 0 2 -4 -1 -10z m752
-1437 c-3 -10 -5 -4 -5 12 0 17 2 24 5 18 2 -7 2 -21 0 -30z m-43 1 c9 -24 2
-26 -12 -4 -7 11 -8 20 -3 20 5 0 12 -7 15 -16z m-978 -95 c8 -14 -18 -31 -30
-19 -9 9 0 30 14 30 5 0 12 -5 16 -11z m1394 3 c0 -5 -7 -9 -15 -9 -8 0 -12 4
-9 9 3 4 9 8 15 8 5 0 9 -4 9 -8z m395 -62 c3 -6 -1 -13 -10 -16 -19 -8 -30 0
-20 15 8 14 22 14 30 1z m-1175 -4 c0 -3 -4 -8 -10 -11 -5 -3 -10 -1 -10 4 0
6 5 11 10 11 6 0 10 -2 10 -4z m90 -10 c0 -3 -4 -8 -10 -11 -5 -3 -10 -1 -10
4 0 6 5 11 10 11 6 0 10 -2 10 -4z m300 -99 c0 -5 -4 -5 -10 -2 -5 3 -10 14
-10 23 0 15 2 15 10 2 5 -8 10 -19 10 -23z m-100 -2 c-13 -14 -30 -25 -38 -25
-12 0 -9 7 8 25 13 14 30 25 38 25 12 0 9 -7 -8 -25z m30 -13 c0 -5 -10 -17
-22 -28 -64 -56 -76 -56 -27 1 30 34 49 44 49 27z m269 -48 c-15 -18 -63 -44
-81 -44 -7 0 6 9 28 19 23 10 45 24 48 30 4 6 10 11 13 11 3 0 0 -7 -8 -16z
m59 4 c-2 -7 14 -15 39 -18 52 -8 61 -15 45 -40 -6 -11 -9 -27 -5 -37 3 -10
-5 -5 -20 12 -26 29 -27 29 -27 8 0 -14 -6 -23 -15 -23 -8 0 -15 -4 -15 -10 0
-5 5 -10 11 -10 5 0 8 -4 4 -10 -3 -5 -13 -6 -22 -3 -12 5 -15 2 -10 -10 5
-12 1 -17 -12 -17 -10 0 -22 -7 -25 -16 -5 -12 -16 -15 -42 -12 -33 4 -35 3
-29 -21 4 -14 13 -39 20 -54 13 -27 13 -28 -7 -21 -15 4 -19 2 -16 -7 3 -8 12
-13 22 -11 21 4 21 -14 -1 -23 -17 -7 -17 -8 0 -14 18 -7 18 -7 0 -27 -10 -11
-15 -15 -10 -10 12 17 8 28 -8 22 -13 -5 -14 -2 -4 15 9 17 7 21 -10 26 -11 3
-22 12 -24 22 -3 12 -7 8 -16 -13 -8 -19 -15 -25 -24 -19 -16 11 -53 11 -50
-1 2 -5 17 -11 35 -13 51 -5 46 -13 -10 -13 -80 0 -62 -20 21 -22 55 -1 61 -2
25 -5 -51 -4 -68 -22 -20 -21 56 1 68 -2 52 -11 -8 -6 -17 -8 -21 -5 -4 2 -10
0 -14 -6 -3 -5 -1 -10 4 -10 6 0 11 -7 11 -16 0 -8 4 -13 9 -10 5 3 11 -1 15
-9 4 -11 -2 -15 -19 -15 -14 0 -25 -5 -25 -11 0 -5 5 -7 10 -4 6 3 10 1 10 -4
0 -6 -9 -11 -19 -11 -11 0 -22 -6 -24 -12 -4 -9 -6 -8 -6 3 -1 8 4 20 11 27 7
7 9 12 5 12 -4 0 -16 -9 -27 -20 -17 -17 -18 -24 -9 -42 9 -17 8 -23 -5 -30
-24 -14 -20 -30 7 -23 18 6 20 5 10 -6 -20 -20 -15 -34 5 -16 10 10 24 17 30
17 6 0 18 12 26 28 20 36 20 19 1 -19 -9 -16 -20 -27 -25 -24 -5 3 -11 1 -15
-5 -4 -6 5 -10 19 -10 16 0 26 6 26 14 0 18 15 23 52 18 32 -5 34 -11 12 -38
-15 -18 -15 -18 -9 4 9 30 -7 28 -22 -3 -6 -14 -7 -25 -2 -25 10 0 7 -29 -5
-48 -4 -7 -5 -16 -2 -19 3 -3 -2 -12 -12 -19 -10 -8 -12 -13 -4 -14 19 0 14
-18 -15 -57 -18 -24 -24 -38 -16 -40 7 -3 9 -11 6 -19 -6 -17 -21 -19 -20 -1
1 37 -3 51 -14 40 -7 -7 -21 -8 -41 -3 -16 5 -36 6 -44 3 -8 -3 -14 0 -14 6 0
6 7 11 15 11 8 0 15 7 15 15 0 9 -6 12 -15 9 -19 -8 -9 25 13 42 11 8 12 13 4
18 -18 11 -14 29 14 59 14 15 22 32 19 37 -4 6 -9 8 -13 6 -4 -2 -8 14 -9 35
-2 31 1 39 15 39 15 1 15 2 1 13 -17 13 -20 27 -22 95 -1 23 -4 42 -8 42 -11
0 -8 74 4 83 9 7 9 10 0 14 -19 7 -16 43 3 43 9 0 14 6 11 13 -2 6 -10 11 -16
10 -12 -3 -14 7 -5 31 3 9 12 16 20 16 11 0 12 4 3 19 -9 14 -9 25 2 50 8 17
18 31 23 31 4 0 6 7 2 15 -4 10 1 15 14 15 11 0 20 5 20 10 0 6 -4 10 -10 10
-5 0 -10 5 -10 10 0 21 20 9 26 -15 3 -14 10 -22 15 -19 5 3 6 -3 2 -13 -6
-17 -5 -17 13 -2 10 9 29 20 42 24 12 3 36 18 53 32 30 26 30 26 36 4 3 -11 9
-21 14 -21 12 0 11 17 -1 25 -11 7 -2 35 11 35 5 0 8 -5 7 -12z m92 8 c0 -2
-15 -6 -34 -8 -19 -2 -32 0 -30 4 5 8 64 12 64 4z m-453 -51 c-58 -54 -44 -60
18 -9 73 59 73 33 0 -29 -36 -31 -71 -57 -76 -57 -12 0 -11 17 1 25 6 4 8 15
5 24 -6 21 60 91 85 91 9 -1 -5 -19 -33 -45z m124 16 c-17 -30 -166 -161 -170
-149 -4 11 156 167 172 168 4 0 3 -8 -2 -19z m1332 -40 c62 -22 99 -43 140
-80 27 -25 27 -25 27 -160 l0 -135 -20 39 c-11 22 -20 54 -20 72 0 45 -25 103
-45 103 -19 0 -91 -36 -100 -49 -3 -5 -47 -9 -98 -9 -50 0 -103 -4 -117 -10
-21 -8 -33 -6 -65 14 -22 13 -50 24 -62 24 -22 0 -23 -4 -23 -71 0 -38 -7 -93
-16 -120 -15 -44 -15 -62 -5 -132 6 -44 18 -90 25 -103 21 -30 73 -61 131 -76
28 -6 51 -13 53 -14 6 -3 -20 -59 -31 -66 -32 -21 -77 -8 -127 37 -28 25 -55
45 -60 45 -20 0 -21 -23 -1 -36 11 -8 32 -35 46 -59 30 -49 75 -71 131 -62 33
6 33 5 40 -39 12 -84 -4 -89 -114 -37 -151 71 -192 166 -192 442 0 146 10 205
56 321 31 78 53 104 117 136 110 57 215 64 330 25z m-1372 -48 c-19 -36 -141
-134 -141 -114 0 6 12 21 27 34 15 12 45 39 67 59 44 41 62 48 47 21z m344
-23 c-3 -11 -2 -20 3 -20 6 0 8 -9 5 -20 -3 -11 -10 -20 -15 -20 -5 0 -7 -9
-3 -20 5 -15 3 -18 -9 -14 -9 3 -16 1 -16 -5 0 -6 4 -11 10 -11 5 0 7 -7 4
-15 -4 -8 -10 -15 -16 -15 -5 0 -6 5 -3 10 3 6 1 10 -4 10 -6 0 -11 -7 -11
-15 0 -8 -6 -15 -14 -15 -14 0 -30 -34 -26 -59 1 -9 -4 -12 -14 -8 -8 3 -18 2
-21 -3 -4 -6 1 -10 9 -10 20 0 20 -10 0 -38 -12 -17 -13 -26 -4 -37 7 -8 7
-15 1 -19 -5 -3 -11 0 -14 6 -2 7 -8 9 -13 5 -5 -4 -2 -12 5 -16 7 -5 10 -14
7 -20 -4 -6 -3 -11 3 -11 5 0 12 6 14 13 4 9 8 8 16 -3 9 -13 12 -13 20 -1 7
11 13 7 25 -17 19 -37 20 -42 5 -42 -12 0 -38 -29 -39 -42 0 -5 5 -8 10 -8 6
0 10 7 10 15 0 16 14 18 42 7 16 -6 16 -10 4 -34 -8 -15 -13 -28 -12 -30 1 -2
-10 -16 -26 -31 -16 -16 -28 -22 -28 -14 0 7 5 18 12 25 9 9 9 12 0 12 -7 0
-12 9 -12 20 0 11 -5 20 -11 20 -6 0 -9 6 -6 13 3 6 8 20 12 30 4 10 3 17 -4
17 -6 0 -11 -6 -11 -14 0 -8 -6 -16 -14 -19 -16 -6 -36 11 -36 31 0 12 -3 12
-17 1 -14 -12 -16 -12 -8 0 14 25 13 101 -2 101 -8 0 2 23 28 59 33 47 39 62
31 77 -17 31 -32 86 -26 95 3 5 16 9 29 9 13 0 27 5 30 11 5 6 11 4 19 -7 12
-15 14 -15 21 7 4 13 8 28 9 32 0 4 7 12 15 16 7 5 10 14 7 20 -5 7 1 11 14
11 17 0 20 -4 15 -20z m-985 -5 c0 -8 -2 -15 -4 -15 -2 0 -6 7 -10 15 -3 8 -1
15 4 15 6 0 10 -7 10 -15z m313 8 c-7 -2 -19 -2 -25 0 -7 3 -2 5 12 5 14 0 19
-2 13 -5z m-202 -50 c-10 -17 -10 -16 -11 3 0 23 13 41 18 25 2 -6 -1 -18 -7
-28z m89 22 c6 -8 9 -19 5 -25 -3 -5 -4 -10 -1 -10 3 0 12 12 20 28 8 15 16
21 17 15 1 -7 2 -19 3 -25 0 -7 6 -13 11 -13 6 0 16 -4 24 -9 10 -7 10 -3 -2
15 -26 37 -20 47 9 14 14 -16 23 -25 21 -20 -7 14 41 36 49 23 4 -6 10 -5 16
3 7 11 11 11 15 1 2 -6 9 -9 14 -6 6 3 23 8 39 11 27 4 29 2 26 -24 -7 -49
-47 -337 -51 -359 -2 -12 -9 -65 -15 -118 -7 -53 -17 -96 -22 -96 -5 0 -7 10
-3 23 5 17 4 18 -4 6 -5 -8 -13 -46 -16 -85 -3 -38 -8 -94 -10 -124 -3 -30 -7
-60 -10 -67 -2 -7 0 -15 5 -18 6 -4 10 -11 10 -16 0 -6 -6 -7 -12 -3 -10 6
-10 4 0 -8 9 -12 10 -18 2 -23 -8 -5 -7 -11 2 -23 7 -9 9 -13 3 -10 -5 3 -15
0 -22 -7 -10 -10 -9 -16 3 -26 12 -10 13 -9 8 5 -9 23 3 20 29 -7 12 -13 15
-14 7 -4 -12 15 -12 21 -2 24 6 3 10 9 6 14 -3 5 2 9 11 9 9 0 14 -4 10 -9 -3
-6 8 -8 29 -4 31 5 33 3 30 -18 -2 -13 -5 -69 -7 -124 l-2 -100 -201 -2 c-230
-1 -250 1 -250 28 0 22 7 24 26 6 8 -6 7 -3 -2 8 -9 11 -16 36 -17 55 0 19 -2
50 -5 69 -8 47 2 56 33 29 l26 -23 -23 27 c-18 19 -22 32 -16 50 4 12 5 23 3
23 -2 0 8 14 23 30 l27 29 23 -20 23 -19 -17 21 c-25 29 -22 41 5 18 l22 -19
-18 22 c-17 20 -17 23 -2 53 13 26 19 29 31 19 12 -10 13 -9 9 4 -4 10 14 37
51 77 32 33 67 77 79 96 l21 36 18 -24 c15 -21 16 -21 6 -1 -5 12 -14 24 -19
28 -6 3 -4 19 4 39 10 22 13 63 12 117 -3 71 -8 93 -34 145 -19 37 -45 70 -67
85 -20 13 -34 29 -31 36 2 7 -1 15 -7 19 -7 4 -8 3 -4 -4 9 -15 -18 -16 -44
-2 -10 6 -30 11 -44 12 -17 2 -25 8 -23 18 1 8 -3 14 -8 13 -6 -1 -11 7 -11
18 0 17 4 16 31 -9 29 -26 29 -26 7 -1 -14 16 -20 32 -16 43 6 14 13 10 47
-26 36 -39 44 -36 9 5 -17 19 -3 23 18 5 12 -11 12 -10 1 5 -18 23 -7 33 23
19 23 -10 24 -10 16 19 -9 31 0 38 20 14z m296 -32 c-10 -10 -19 5 -10 18 6
11 8 11 12 0 2 -7 1 -15 -2 -18z m121 4 c-9 -23 -130 -112 -125 -93 3 16 119
117 127 110 2 -2 1 -10 -2 -17z m-603 -39 c-3 -5 -1 -15 5 -22 9 -10 7 -15 -5
-20 -9 -4 -19 -4 -22 -1 -3 3 0 5 8 5 8 0 9 4 3 13 -5 6 -10 22 -11 35 -1 19
2 21 13 12 8 -7 12 -16 9 -22z m468 -20 c-7 -7 -12 -8 -12 -2 0 6 3 14 7 17 3
4 9 5 12 2 2 -3 -1 -11 -7 -17z m128 8 c0 -14 -111 -106 -128 -106 -6 0 -13
-6 -15 -12 -4 -9 -6 -8 -6 2 0 11 131 128 147 130 1 0 2 -6 2 -14z m-133 -58
c-3 -8 -6 -5 -6 6 -1 11 2 17 5 13 3 -3 4 -12 1 -19z m133 3 c0 -11 -131 -113
-138 -107 -8 8 9 27 66 72 57 44 72 52 72 35z m365 -68 c-4 -43 -7 -86 -7 -95
1 -22 -14 -24 -22 -3 -3 8 -14 15 -25 15 -28 0 -35 16 -17 42 9 12 16 34 16
48 0 14 4 30 8 36 6 10 41 33 51 34 2 0 0 -35 -4 -77z m-871 49 c3 -5 -1 -9
-9 -9 -8 0 -12 4 -9 9 3 4 7 8 9 8 2 0 6 -4 9 -8z m36 -12 c0 -5 6 -9 13 -7 6
1 11 -4 10 -10 -2 -7 4 -13 13 -13 8 0 13 -4 10 -9 -3 -5 2 -15 11 -22 15 -12
16 -11 11 9 -5 19 -4 21 7 12 10 -8 11 -19 4 -42 -10 -35 -5 -52 6 -19 6 21
16 26 28 14 4 -3 1 -13 -6 -21 -9 -12 -9 -14 0 -9 7 5 16 -1 23 -13 10 -19 6
-25 -15 -20 -5 1 -6 -2 -2 -7 5 -4 14 -8 20 -8 7 0 13 -9 14 -20 1 -11 4 -35
6 -52 2 -22 -1 -33 -9 -33 -7 0 -15 -4 -18 -9 -3 -5 2 -8 12 -7 14 1 16 -6 14
-34 -2 -19 -8 -39 -14 -45 -8 -7 -9 -4 -5 8 4 11 3 16 -3 12 -14 -9 -12 -35 2
-35 6 0 3 -7 -8 -15 -10 -8 -15 -15 -10 -15 6 0 1 -7 -10 -15 -11 -8 -14 -15
-6 -15 22 0 -11 -40 -34 -40 -11 0 -30 -9 -42 -20 -12 -11 -25 -20 -30 -20
-10 0 -60 -69 -76 -105 -9 -19 -10 -19 -13 2 -5 26 14 66 27 58 6 -3 7 1 4 9
-4 11 0 16 12 16 13 0 15 3 7 8 -14 9 17 63 65 115 14 15 22 27 16 27 -5 0 -1
5 9 11 14 9 15 13 5 32 -17 30 -18 54 -1 54 9 0 10 -4 3 -11 -15 -15 -12 -25
8 -21 9 2 21 4 26 4 5 1 3 7 -3 15 -9 11 -9 15 1 19 9 3 7 9 -7 21 -16 13 -17
15 -2 10 11 -4 17 -1 17 10 0 18 -13 20 -40 6 -16 -8 -18 -8 -14 5 3 8 10 13
14 10 12 -7 21 10 15 28 -4 8 -16 13 -28 12 -12 -1 -31 1 -42 6 -19 7 -19 8 3
8 13 1 22 7 22 16 0 8 0 17 0 20 0 3 -3 4 -7 3 -5 -2 -7 -10 -6 -18 2 -10 0
-11 -3 -2 -3 6 -11 9 -17 5 -9 -5 -9 -3 0 8 7 9 8 20 3 29 -5 8 -7 17 -4 21 2
4 0 10 -5 14 -6 3 -8 12 -5 20 4 9 -2 18 -17 23 -17 7 -19 11 -9 17 8 5 19 0
29 -14 9 -12 20 -19 24 -15 12 12 8 26 -5 18 -7 -4 -10 -4 -6 1 4 4 3 14 -3
22 -9 9 -8 13 0 13 6 0 11 -4 11 -10z m468 -20 c-2 -6 -35 -35 -73 -65 -73
-56 -84 -56 -83 0 0 18 1 18 6 -2 7 -21 10 -20 72 27 65 49 85 59 78 40z m2
-43 c0 -7 -33 -38 -72 -68 -89 -67 -98 -73 -98 -60 0 9 157 141 167 141 2 0 3
-6 3 -13z m10 -46 c0 -5 -31 -32 -69 -60 -38 -28 -74 -58 -81 -66 -14 -17 -30
-20 -30 -5 0 11 159 140 172 140 5 0 8 -4 8 -9z m-26 -75 c-16 -12 -58 -45
-94 -73 -67 -55 -97 -69 -64 -31 38 43 179 148 183 137 2 -7 -9 -22 -25 -33z
m25 -30 c-2 -1 -46 -35 -97 -75 -87 -69 -119 -86 -89 -49 27 35 181 150 185
139 2 -7 2 -13 1 -15z m111 -1 c-7 -9 -15 -13 -18 -10 -3 2 1 11 8 20 7 9 15
13 18 10 3 -2 -1 -11 -8 -20z m-530 6 c0 -10 -26 -9 -36 2 -4 4 2 7 14 7 12 0
22 -4 22 -9z m430 -30 c0 -5 -47 -48 -105 -95 -62 -51 -105 -80 -105 -71 0 12
191 175 206 175 2 0 4 -4 4 -9z m-555 -73 c4 -72 -2 -81 -43 -61 -30 15 -32
18 -26 52 7 38 43 82 58 70 4 -4 9 -32 11 -61z m555 22 c0 -5 -21 -26 -46 -47
-26 -21 -76 -62 -111 -92 -63 -53 -100 -64 -52 -15 35 35 192 163 202 163 4 1
7 -3 7 -9z m1549 -332 c-14 -34 -64 -78 -88 -78 -16 0 -20 15 -30 101 -6 55
-18 113 -26 129 l-15 29 42 12 c53 14 104 67 115 117 5 25 9 -14 11 -123 2
-104 -1 -169 -9 -187z m-1343 277 c-6 -19 -14 -35 -18 -35 -11 0 -10 7 7 40
21 40 24 38 11 -5z m-216 0 c0 -8 -33 -40 -72 -71 -40 -32 -90 -74 -110 -93
-28 -25 -38 -31 -38 -19 0 16 32 46 160 152 64 52 60 50 60 31z m336 -52 c-3
-3 -1 -12 5 -19 7 -9 7 -19 -2 -35 -8 -16 -9 -24 -1 -27 8 -2 8 -11 1 -29 -5
-15 -6 -29 -1 -32 13 -9 9 -51 -5 -51 -9 0 -11 -9 -6 -30 7 -37 -18 -42 -41
-8 -12 17 -18 20 -28 10 -9 -9 -8 -15 8 -27 10 -8 14 -15 8 -15 -6 0 -14 3
-18 8 -4 4 -12 8 -17 8 -5 1 -12 2 -17 3 -4 0 -13 10 -20 21 -11 17 -10 20 8
20 13 0 18 -5 14 -15 -10 -24 9 -17 30 12 19 26 19 26 -2 21 -12 -4 -25 -2
-28 3 -3 6 -11 5 -20 -2 -11 -9 -14 -8 -14 5 0 9 5 16 11 16 6 0 9 7 5 15 -3
9 0 15 9 15 8 0 15 5 15 10 0 6 -5 10 -10 10 -6 0 -2 17 9 38 17 33 29 50 71
100 9 10 14 9 27 -3 8 -9 13 -19 9 -22z m-76 17 c0 -5 -9 -24 -20 -42 -23 -37
-26 -30 -8 19 11 31 28 45 28 23z m-60 -35 c0 -25 -15 -24 -16 1 -1 13 2 21 7
18 5 -3 9 -11 9 -19z m-220 1 c0 -7 -28 -35 -62 -62 -35 -27 -82 -66 -105 -88
-50 -45 -60 -26 -10 21 30 29 169 143 175 143 1 0 2 -6 2 -14z m-223 -63 c-3
-10 -5 -4 -5 12 0 17 2 24 5 18 2 -7 2 -21 0 -30z m213 4 c0 -7 -26 -32 -57
-57 -32 -25 -77 -62 -101 -84 -47 -43 -64 -44 -31 -1 18 22 177 155 187 155 1
0 2 -6 2 -13z m-210 -37 c0 -5 -2 -10 -4 -10 -3 0 -8 5 -11 10 -3 6 -1 10 4
10 6 0 11 -4 11 -10z m179 -49 c-18 -15 -67 -55 -107 -89 -75 -65 -99 -76 -61
-28 35 44 193 168 198 154 2 -7 -11 -23 -30 -37z m-384 29 c-3 -5 -12 -10 -18
-10 -7 0 -6 4 3 10 19 12 23 12 15 0z m192 -62 c-2 -13 -4 -3 -4 22 0 25 2 35
4 23 2 -13 2 -33 0 -45z m248 33 c3 -5 1 -12 -5 -16 -5 -3 -10 1 -10 9 0 18 6
21 15 7z m48 -33 c19 -13 50 -31 68 -42 21 -12 29 -20 21 -23 -18 -7 -93 27
-86 38 3 5 -2 6 -10 3 -8 -3 -24 0 -36 6 -17 9 -19 14 -9 26 15 18 12 18 52
-8z m-103 -1 c0 -11 -172 -167 -185 -167 -19 0 7 30 87 100 51 44 94 80 95 80
2 0 3 -6 3 -13z m51 -23 l24 -27 -27 18 c-16 9 -28 21 -28 26 0 14 5 11 31
-17z m-13 -36 c7 -7 12 -19 12 -27 0 -11 -4 -10 -20 4 -22 20 -28 8 -7 -15 6
-7 -2 -3 -19 11 -29 23 -30 24 -10 31 31 9 31 9 44 -4z m-88 -38 c-13 -24 -72
-70 -91 -70 -14 0 79 89 94 90 4 0 3 -9 -3 -20z m436 -28 c-14 -14 -16 -14
-16 -1 0 20 23 44 29 28 2 -6 -4 -18 -13 -27z m-76 19 c0 -5 9 -7 20 -4 26 7
26 -14 0 -22 -21 -7 -60 10 -60 25 0 6 9 10 20 10 11 0 20 -4 20 -9z m-296
-17 c11 -29 6 -37 -12 -21 -10 10 -22 14 -25 10 -4 -3 -7 -2 -7 4 0 26 35 32
44 7z m121 -22 c6 -4 11 -13 12 -19 2 -10 -3 -10 -22 -1 -13 6 -22 15 -19 19
6 11 16 11 29 1z m204 -8 c10 -9 -45 -3 -59 6 -11 7 -5 8 20 4 19 -4 37 -8 39
-10z m-339 -4 c0 -5 -2 -10 -4 -10 -3 0 -8 5 -11 10 -3 6 -1 10 4 10 6 0 11
-4 11 -10z m400 3 c0 -4 -10 -18 -22 -31 l-23 -25 23 6 c15 3 22 1 19 -6 -2
-8 -23 -11 -58 -8 -59 3 -93 16 -84 32 9 14 42 11 49 -6 9 -24 30 -18 54 15
21 28 42 39 42 23z m-480 -13 c0 -5 -5 -10 -11 -10 -5 0 -7 5 -4 10 3 6 8 10
11 10 2 0 4 -4 4 -10z m60 -9 c0 -17 -25 -28 -45 -20 -19 7 -19 8 3 8 13 1 20
5 17 11 -3 6 1 10 9 10 9 0 16 -4 16 -9z m97 -17 c-3 -3 -12 -4 -19 -1 -8 3
-5 6 6 6 11 1 17 -2 13 -5z m43 -8 c0 -2 -9 -6 -20 -9 -11 -3 -18 -1 -14 4 5
9 34 13 34 5z m98 -3 c-15 -2 -42 -2 -60 0 -18 2 -6 4 27 4 33 0 48 -2 33 -4z
m-151 -9 c-3 -3 -12 -4 -19 -1 -8 3 -5 6 6 6 11 1 17 -2 13 -5z m202 -19 c1
-2 -26 -18 -60 -36 -94 -47 -119 -67 -119 -95 0 -17 -8 -27 -26 -34 -36 -14
-35 -14 -32 32 3 38 8 46 63 87 42 33 55 47 42 49 -9 2 -32 -7 -49 -19 l-33
-22 25 26 c24 25 28 26 105 20 44 -3 82 -7 84 -8z m64 -12 c-7 -2 -21 -2 -30
0 -10 3 -4 5 12 5 17 0 24 -2 18 -5z m60 -103 c5 -4 3 -11 -3 -15 -6 -4 -16
-3 -21 2 -7 7 -33 -2 -75 -25 -50 -26 -68 -31 -77 -23 -13 13 -13 13 68 57 39
21 88 23 108 4z m-203 -20 c0 -5 -2 -10 -4 -10 -3 0 -8 5 -11 10 -3 6 -1 10 4
10 6 0 11 -4 11 -10z m150 -58 c16 -10 27 -22 23 -25 -10 -11 -25 -8 -18 3 4
6 -7 10 -25 10 -29 0 -32 -3 -26 -23 5 -20 -1 -26 -30 -40 -45 -22 -59 -21
-61 2 -1 13 6 21 19 23 12 2 23 10 26 18 3 12 2 12 -8 3 -13 -12 -60 2 -60 19
0 13 18 9 23 -4 3 -10 7 -10 20 1 14 11 20 11 32 1 12 -10 19 -10 27 -2 7 7 8
12 3 12 -6 0 -3 5 5 10 19 12 15 13 50 -8z m-410 -23 c0 -11 -4 -17 -10 -14
-5 3 -10 13 -10 21 0 8 5 14 10 14 6 0 10 -9 10 -21z m233 14 c-19 -7 -15 -24
5 -21 13 2 18 -5 19 -27 2 -26 1 -27 -7 -10 -8 15 -9 11 -5 -17 3 -21 4 -38 2
-38 -7 0 -47 88 -47 103 0 7 10 13 23 14 12 0 16 -1 10 -4z m-526 -19 c-3 -3
-12 -4 -19 -1 -8 3 -5 6 6 6 11 1 17 -2 13 -5z m330 -41 c-3 -10 -5 -4 -5 12
0 17 2 24 5 18 2 -7 2 -21 0 -30z m440 31 c-14 -15 -112 -74 -122 -74 -5 0 -2
5 8 11 9 6 15 14 12 20 -3 5 0 6 7 4 8 -3 29 6 48 20 29 22 64 36 47 19z
m-357 -8 c0 -2 -8 -10 -17 -17 -16 -13 -17 -12 -4 4 13 16 21 21 21 13z m80
-52 c0 -14 -3 -14 -15 -4 -8 7 -15 14 -15 16 0 2 7 4 15 4 8 0 15 -7 15 -16z
m-60 -56 c0 -5 -8 -8 -17 -6 -12 2 -19 14 -21 33 l-2 30 20 -24 c11 -13 20
-28 20 -33z m176 30 c4 -15 1 -25 -10 -34 -17 -12 -18 -47 -3 -71 5 -7 4 -13
-1 -13 -21 0 -31 73 -11 86 6 3 9 17 6 30 -5 30 9 32 19 2z m122 0 c-5 -13
-63 -17 -74 -5 -9 9 43 20 55 12 6 -3 11 -1 11 6 0 7 3 10 6 6 4 -3 4 -12 2
-19z m-251 -27 c-6 -17 -15 -27 -20 -24 -5 3 -4 10 1 15 6 6 8 17 5 24 -3 8 1
14 10 14 13 0 13 -5 4 -29z m90 5 c-8 -16 -14 -21 -19 -13 -4 7 -3 14 2 15 6
2 8 8 4 13 -3 5 1 9 9 9 12 0 13 -4 4 -24z m-37 -31 c0 -5 -5 -3 -10 5 -5 8
-10 20 -10 25 0 6 5 3 10 -5 5 -8 10 -19 10 -25z m-183 0 c-4 -34 -17 -44 -17
-13 0 22 7 38 17 38 2 0 2 -11 0 -25z m318 -3 c8 -21 -9 -29 -45 -24 -33 5
-40 26 -14 40 22 12 51 4 59 -16z m34 15 c6 -8 8 -17 4 -20 -7 -8 -33 11 -33
24 0 13 16 11 29 -4z m-249 -57 c-8 -5 -17 -7 -19 -4 -3 3 1 9 9 14 8 5 17 7
19 4 3 -3 -1 -9 -9 -14z m260 12 c0 -5 -11 -14 -25 -20 -14 -6 -25 -16 -25
-22 0 -5 -5 -10 -12 -10 -6 0 1 14 17 30 29 30 45 38 45 22z m-155 -11 c3 -6
-3 -15 -14 -20 -15 -9 -20 -7 -24 9 -4 15 0 20 13 20 11 0 21 -4 25 -9z m205
-4 c0 -18 -75 -66 -89 -57 -12 7 1 21 49 53 31 20 40 21 40 4z m-277 -31 c12
-17 13 -26 4 -35 -16 -16 -22 -14 -36 15 -20 44 6 61 32 20z m-146 -8 c-3 -8
-6 -5 -6 6 -1 11 2 17 5 13 3 -3 4 -12 1 -19z m73 2 c0 -13 -11 -13 -30 0 -12
8 -11 10 8 10 12 0 22 -4 22 -10z m-400 -30 c14 -11 32 -20 41 -20 20 0 35
-33 19 -38 -7 -3 -6 -8 4 -16 8 -6 17 -23 20 -38 2 -15 7 -32 11 -38 3 -5 8
-20 10 -31 3 -12 11 -29 18 -38 34 -38 37 -57 17 -96 -10 -21 -24 -63 -30 -94
-14 -69 -38 -119 -59 -125 -9 -3 -41 -8 -72 -11 -55 -7 -57 -6 -71 21 -15 34
-51 53 -102 56 -47 4 -55 30 -28 84 11 22 22 56 26 77 4 21 10 46 13 54 4 10
2 14 -4 10 -13 -8 -25 17 -17 37 3 8 12 17 20 20 9 3 12 11 8 17 -4 6 11 27
34 48 22 21 44 51 48 67 16 71 48 90 94 54z m390 -16 c0 -2 -7 -4 -15 -4 -8 0
-15 4 -15 10 0 5 7 7 15 4 8 -4 15 -8 15 -10z m277 -10 c-3 -3 -12 -4 -19 -1
-8 3 -5 6 6 6 11 1 17 -2 13 -5z m-137 -24 c0 -5 -5 -10 -11 -10 -5 0 -7 5 -4
10 3 6 8 10 11 10 2 0 4 -4 4 -10z m139 -27 c2 -2 -8 -3 -22 -3 -20 0 -25 4
-21 15 5 13 9 13 23 3 9 -7 18 -14 20 -15z m-109 9 c0 -4 -13 -16 -30 -25 -24
-15 -30 -15 -30 -4 0 8 10 19 23 25 27 13 37 14 37 4z m50 -26 c0 -3 -4 -8
-10 -11 -5 -3 -10 -1 -10 4 0 6 5 11 10 11 6 0 10 -2 10 -4z m67 -28 c-9 -4
-26 -4 -39 1 -20 8 -18 9 15 9 26 -1 34 -4 24 -10z m-51 -17 c-4 -5 -1 -11 6
-13 8 -3 6 -7 -5 -11 -17 -6 -24 12 -10 26 9 10 15 8 9 -2z m-49 -25 c-3 -7 0
-19 6 -25 7 -7 7 -11 1 -11 -6 0 -19 9 -29 20 -18 20 -18 21 0 14 13 -5 16 -4
11 4 -4 7 -2 12 4 12 7 0 10 -6 7 -14z m-27 -30 c0 -2 -7 -9 -15 -16 -13 -11
-14 -10 -9 4 5 14 24 23 24 12z m-66 -47 c-3 -5 -10 -7 -15 -3 -5 3 -7 10 -3
15 3 5 10 7 15 3 5 -3 7 -10 3 -15z m-757 -21 c-3 -8 -6 -5 -6 6 -1 11 2 17 5
13 3 -3 4 -12 1 -19z m723 14 c0 -10 -90 -74 -90 -64 0 4 -3 17 -6 30 -5 18
-2 22 17 22 13 0 31 5 39 10 18 12 40 13 40 2z m295 -23 c-4 -5 -18 -9 -33 -9
l-27 1 25 13 c25 15 45 12 35 -5z m-402 -39 c3 -11 1 -20 -4 -20 -5 0 -9 9 -9
20 0 11 2 20 4 20 2 0 6 -9 9 -20z m260 5 c-12 -9 -34 -38 -49 -65 -29 -53
-34 -56 -66 -39 -20 11 -20 11 1 26 12 8 33 32 47 54 20 32 30 39 56 39 32 0
32 0 11 -15z m-179 -97 c10 -10 9 -18 -7 -45 -19 -32 -37 -43 -37 -22 0 5 -4
8 -9 5 -15 -10 2 49 18 61 20 15 19 15 35 1z m216 -27 c0 -5 -12 -12 -26 -15
l-27 -7 22 -15 c24 -17 29 -39 6 -30 -9 3 -15 0 -15 -8 0 -7 -7 -19 -15 -26
-9 -8 -15 -9 -15 -2 0 6 5 14 10 17 17 11 11 44 -10 55 -26 14 -17 29 15 25
14 -1 28 2 31 6 7 12 24 12 24 0z m78 -28 c4 -24 -22 -47 -43 -39 -15 5 -21
56 -9 69 11 11 49 -10 52 -30z m-238 -28 c-7 -8 -19 -15 -27 -15 -10 0 -8 6 8
19 27 22 38 19 19 -4z m90 -4 c-5 -11 -15 -23 -21 -27 -6 -3 -3 5 6 20 20 30
30 35 15 7z m200 -2 c0 -14 -17 -10 -23 5 -4 10 -1 13 9 9 7 -3 14 -9 14 -14z
m-347 -13 c4 -10 1 -13 -8 -9 -8 3 -12 9 -9 14 7 12 11 11 17 -5z m317 0 c0
-3 -4 -8 -10 -11 -5 -3 -10 -1 -10 4 0 6 5 11 10 11 6 0 10 -2 10 -4z m-129
-39 c-10 -9 -11 -8 -5 6 3 10 9 15 12 12 3 -3 0 -11 -7 -18z m115 -18 c23 -15
45 -25 50 -21 5 4 2 -1 -5 -10 -7 -10 -17 -16 -21 -13 -5 3 -11 1 -15 -5 -3
-5 -11 -10 -17 -10 -6 0 -3 9 7 20 22 25 9 26 -19 3 -12 -10 -15 -11 -8 -3 17
20 15 37 -5 44 -11 5 -24 -1 -36 -16 l-19 -23 16 27 c15 25 15 28 -2 38 -14 9
-13 10 8 5 14 -4 44 -20 66 -36z m54 26 c0 -8 -4 -15 -10 -15 -5 0 -10 7 -10
15 0 8 5 15 10 15 6 0 10 -7 10 -15z m-460 -22 c0 -20 -3 -24 -11 -16 -7 7 -9
19 -6 27 10 24 17 19 17 -11z m45 17 c3 -5 1 -10 -4 -10 -6 0 -11 5 -11 10 0
6 2 10 4 10 3 0 8 -4 11 -10z m50 0 c3 -5 1 -10 -4 -10 -6 0 -11 5 -11 10 0 6
2 10 4 10 3 0 8 -4 11 -10z m206 -41 c17 -12 37 -18 46 -15 12 5 13 4 5 -7 -7
-8 -9 -17 -5 -20 3 -4 -8 -7 -26 -7 -21 0 -34 6 -38 18 -4 9 -16 25 -28 34
-19 16 -19 17 -2 18 11 0 32 -9 48 -21z m-153 -14 c14 -31 15 -45 4 -45 -9 0
-32 44 -32 60 0 19 17 10 28 -15z m-174 -11 c-5 -20 -2 -26 15 -31 17 -4 21
-13 21 -49 0 -31 -4 -44 -14 -44 -16 0 -25 -19 -19 -37 3 -7 11 -13 19 -13 20
0 19 -86 -1 -94 -22 -8 -18 -37 5 -43 14 -4 20 -14 20 -34 0 -22 -5 -29 -20
-29 -11 0 -19 3 -19 8 6 35 -35 47 -44 12 -9 -33 -24 -23 -62 41 -40 68 -41
74 -19 65 9 -4 23 -1 30 5 8 7 28 9 49 5 42 -8 58 14 31 43 -20 22 -21 77 -2
97 11 11 12 20 4 42 -10 26 -5 82 7 82 3 0 2 -12 -1 -26z m91 -4 c-16 -17 -16
-20 -2 -20 8 0 18 5 20 10 3 6 4 5 3 -2 -1 -7 -12 -14 -24 -16 -18 -3 -22 2
-22 22 0 18 4 24 15 20 8 -4 15 -1 15 7 0 7 3 9 7 6 3 -4 -2 -16 -12 -27z
m156 -21 c-18 -15 -18 -16 1 -40 18 -23 19 -23 13 -2 -8 28 11 39 24 14 15
-27 -12 -50 -35 -30 -18 15 -41 58 -40 77 2 23 29 32 43 14 10 -14 9 -20 -6
-33z m-808 7 c-4 -5 1 -7 10 -3 14 5 17 1 16 -21 -1 -17 -3 -20 -6 -9 -2 9
-11 17 -19 17 -9 0 -14 10 -14 28 0 20 3 23 9 12 6 -8 7 -18 4 -24z m1043 1
c-10 -7 -61 -40 -113 -74 -81 -53 -102 -63 -139 -63 -48 0 -52 4 -28 31 11 12
25 16 43 13 29 -6 81 27 81 52 0 8 3 14 8 15 48 3 102 14 122 25 31 16 52 17
26 1z m-346 -27 c0 -5 -5 -10 -11 -10 -5 0 -7 5 -4 10 3 6 8 10 11 10 2 0 4
-4 4 -10z m-58 -46 c5 -8 3 -14 -7 -18 -12 -4 -15 2 -14 27 0 18 3 25 6 17 3
-8 10 -20 15 -26z m138 10 c0 -8 -4 -12 -10 -9 -5 3 -10 10 -10 16 0 5 5 9 10
9 6 0 10 -7 10 -16z m218 -37 c-5 -26 -14 -47 -19 -47 -11 0 -11 0 2 41 6 19
13 40 15 48 10 32 12 2 2 -42z m27 13 c3 -5 1 -10 -4 -10 -6 0 -11 5 -11 10 0
6 2 10 4 10 3 0 8 -4 11 -10z m45 -35 c-7 -9 -15 -13 -18 -10 -3 2 1 11 8 20
7 9 15 13 18 10 3 -2 -1 -11 -8 -20z m-330 11 c0 -3 -4 -8 -10 -11 -5 -3 -10
-1 -10 4 0 6 5 11 10 11 6 0 10 -2 10 -4z m290 0 c0 -3 -4 -8 -10 -11 -5 -3
-10 -1 -10 4 0 6 5 11 10 11 6 0 10 -2 10 -4z m-117 -43 c-7 -2 -19 -2 -25 0
-7 3 -2 5 12 5 14 0 19 -2 13 -5z m115 -10 c-10 -2 -26 -2 -35 0 -10 3 -2 5
17 5 19 0 27 -2 18 -5z m-361 -55 c-3 -8 -6 -5 -6 6 -1 11 2 17 5 13 3 -3 4
-12 1 -19z m-247 -27 c0 -5 -6 -14 -14 -20 -11 -9 -15 -9 -20 1 -6 13 3 -28
11 -48 2 -6 -5 -14 -16 -17 -17 -4 -21 0 -21 18 0 13 -2 30 -5 37 -4 9 5 18
22 25 36 14 43 15 43 4z m257 -68 c-3 -10 -5 -2 -5 17 0 19 2 27 5 18 2 -10 2
-26 0 -35z m-235 -18 c-5 -28 -12 -32 -22 -15 -15 24 -11 42 8 38 11 -2 16
-11 14 -23z"/>
<path d="M2275 4080 c-10 -11 -13 -20 -8 -20 13 0 38 29 31 35 -3 3 -13 -4
-23 -15z"/>
<path d="M1894 3699 c-10 -17 13 -36 27 -22 12 12 4 33 -11 33 -5 0 -12 -5
-16 -11z"/>
<path d="M2410 2590 c0 -5 5 -10 10 -10 6 0 10 5 10 10 0 6 -4 10 -10 10 -5 0
-10 -4 -10 -10z"/>
<path d="M2350 2578 c0 -10 -3 -17 -7 -17 -25 4 -41 -4 -46 -22 -4 -15 -2 -19
10 -15 9 4 13 1 10 -6 -2 -7 -12 -12 -21 -12 -9 1 -16 -2 -16 -7 0 -5 11 -9
25 -9 16 0 25 6 25 15 0 8 5 15 10 15 17 0 11 18 -7 23 -11 3 -7 5 10 6 29 1
32 7 17 31 -8 13 -10 12 -10 -2z"/>
<path d="M2445 2580 c4 -6 11 -8 16 -5 14 9 11 15 -7 15 -8 0 -12 -5 -9 -10z"/>
<path d="M2390 2554 c0 -8 5 -12 10 -9 6 4 8 11 5 16 -9 14 -15 11 -15 -7z"/>
<path d="M2190 2540 c0 -5 5 -10 10 -10 6 0 10 5 10 10 0 6 -4 10 -10 10 -5 0
-10 -4 -10 -10z"/>
<path d="M2365 2531 c-3 -5 -1 -12 5 -16 5 -3 10 1 10 9 0 18 -6 21 -15 7z"/>
<path d="M2170 2505 c0 -9 -7 -18 -15 -21 -8 -4 -12 -11 -9 -16 4 -6 14 -1 25
13 21 27 24 39 9 39 -5 0 -10 -7 -10 -15z"/>
<path d="M2206 2511 c-4 -7 -5 -15 -2 -18 9 -9 19 4 14 18 -4 11 -6 11 -12 0z"/>
<path d="M2337 2487 c-23 -36 -21 -45 4 -19 11 13 19 28 17 34 -2 6 -12 -1
-21 -15z"/>
<path d="M2186 2482 c-12 -12 -5 -22 14 -19 28 5 34 14 11 20 -11 2 -22 2 -25
-1z"/>
<path d="M2260 2469 c0 -6 5 -7 10 -4 6 3 10 1 10 -4 0 -6 5 -11 10 -11 19 0
10 26 -10 27 -11 1 -20 -3 -20 -8z"/>
<path d="M2160 2440 c0 -5 5 -10 10 -10 6 0 10 5 10 10 0 6 -4 10 -10 10 -5 0
-10 -4 -10 -10z"/>
<path d="M2245 2440 c-3 -5 -1 -10 4 -10 6 0 11 5 11 10 0 6 -2 10 -4 10 -3 0
-8 -4 -11 -10z"/>
<path d="M2135 2410 c-3 -5 1 -10 10 -10 9 0 13 5 10 10 -3 6 -8 10 -10 10 -2
0 -7 -4 -10 -10z"/>
<path d="M2176 2405 c-3 -8 -1 -15 4 -15 6 0 10 7 10 15 0 8 -2 15 -4 15 -2 0
-6 -7 -10 -15z"/>
<path d="M2236 2401 c-4 -5 1 -8 9 -7 21 3 31 16 12 16 -9 0 -18 -4 -21 -9z"/>
<path d="M2155 2370 c-3 -5 -2 -10 4 -10 5 0 13 5 16 10 3 6 2 10 -4 10 -5 0
-13 -4 -16 -10z"/>
<path d="M2190 2369 c0 -5 5 -7 10 -4 6 3 10 8 10 11 0 2 -4 4 -10 4 -5 0 -10
-5 -10 -11z"/>
<path d="M2240 2372 c0 -4 9 -8 20 -9 11 -1 20 2 20 8 0 5 -9 9 -20 9 -11 0
-20 -4 -20 -8z"/>
<path d="M2130 2340 c0 -5 5 -10 10 -10 6 0 10 5 10 10 0 6 -4 10 -10 10 -5 0
-10 -4 -10 -10z"/>
<path d="M2165 2340 c-3 -5 1 -10 9 -10 9 0 16 5 16 10 0 6 -4 10 -9 10 -6 0
-13 -4 -16 -10z"/>
<path d="M2135 2240 c-3 -5 -2 -10 4 -10 5 0 13 5 16 10 3 6 2 10 -4 10 -5 0
-13 -4 -16 -10z"/>
<path d="M2150 2210 c0 -5 5 -10 10 -10 6 0 10 5 10 10 0 6 -4 10 -10 10 -5 0
-10 -4 -10 -10z"/>
<path d="M2182 2203 c-15 -27 -15 -46 -2 -38 6 4 8 10 5 15 -3 4 0 10 6 12 7
2 10 11 7 18 -3 11 -8 10 -16 -7z"/>
<path d="M2130 2174 c0 -8 5 -12 10 -9 6 4 8 11 5 16 -9 14 -15 11 -15 -7z"/>
<path d="M2200 2169 c0 -5 5 -7 10 -4 6 3 10 8 10 11 0 2 -4 4 -10 4 -5 0 -10
-5 -10 -11z"/>
<path d="M2140 2140 c0 -5 4 -10 9 -10 6 0 13 5 16 10 3 6 -1 10 -9 10 -9 0
-16 -4 -16 -10z"/>
<path d="M2250 2009 c0 -5 5 -7 10 -4 6 3 10 8 10 11 0 2 -4 4 -10 4 -5 0 -10
-5 -10 -11z"/>
<path d="M2170 1980 c0 -5 5 -10 10 -10 6 0 10 5 10 10 0 6 -4 10 -10 10 -5 0
-10 -4 -10 -10z"/>
<path d="M2235 1980 c-3 -5 -1 -10 4 -10 6 0 11 5 11 10 0 6 -2 10 -4 10 -3 0
-8 -4 -11 -10z"/>
<path d="M2150 1949 c0 -7 -8 -18 -17 -25 -10 -7 -14 -16 -10 -21 5 -4 17 3
27 17 22 28 25 40 10 40 -5 0 -10 -5 -10 -11z"/>
<path d="M2178 1932 c-9 -18 -12 -32 -8 -32 13 0 32 38 27 53 -2 6 -11 -3 -19
-21z"/>
<path d="M2221 1944 c0 -11 3 -14 6 -6 3 7 2 16 -1 19 -3 4 -6 -2 -5 -13z"/>
<path d="M2245 1951 c-3 -5 -1 -12 5 -16 5 -3 10 1 10 9 0 18 -6 21 -15 7z"/>
<path d="M2200 1909 c0 -5 5 -7 10 -4 6 3 10 8 10 11 0 2 -4 4 -10 4 -5 0 -10
-5 -10 -11z"/>
<path d="M2230 1910 c0 -5 5 -10 10 -10 6 0 10 5 10 10 0 6 -4 10 -10 10 -5 0
-10 -4 -10 -10z"/>
<path d="M2140 1880 c0 -5 5 -10 10 -10 6 0 10 5 10 10 0 6 -4 10 -10 10 -5 0
-10 -4 -10 -10z"/>
<path d="M2180 1880 c0 -5 5 -10 10 -10 6 0 10 5 10 10 0 6 -4 10 -10 10 -5 0
-10 -4 -10 -10z"/>
<path d="M2210 1880 c0 -5 5 -10 10 -10 6 0 10 5 10 10 0 6 -4 10 -10 10 -5 0
-10 -4 -10 -10z"/>
<path d="M2120 1850 c0 -5 5 -10 10 -10 6 0 10 5 10 10 0 6 -4 10 -10 10 -5 0
-10 -4 -10 -10z"/>
<path d="M2155 1850 c-3 -5 1 -10 9 -10 9 0 16 5 16 10 0 6 -4 10 -9 10 -6 0
-13 -4 -16 -10z"/>
<path d="M2190 1845 c0 -8 -4 -15 -10 -15 -5 0 -10 -8 -10 -17 0 -15 4 -13 20
7 22 28 25 40 10 40 -5 0 -10 -7 -10 -15z"/>
<path d="M2225 1850 c-3 -5 -1 -10 4 -10 6 0 11 5 11 10 0 6 -2 10 -4 10 -3 0
-8 -4 -11 -10z"/>
<path d="M2130 1820 c0 -5 5 -10 10 -10 6 0 10 5 10 10 0 6 -4 10 -10 10 -5 0
-10 -4 -10 -10z"/>
<path d="M2207 1823 c-4 -3 -7 -11 -7 -17 0 -6 5 -5 12 2 6 6 9 14 7 17 -3 3
-9 2 -12 -2z"/>
<path d="M2435 2450 c4 -6 11 -8 16 -5 14 9 11 15 -7 15 -8 0 -12 -5 -9 -10z"/>
<path d="M2415 2420 c3 -5 8 -10 11 -10 2 0 4 5 4 10 0 6 -5 10 -11 10 -5 0
-7 -4 -4 -10z"/>
<path d="M2310 2400 c0 -5 5 -10 10 -10 6 0 10 5 10 10 0 6 -4 10 -10 10 -5 0
-10 -4 -10 -10z"/>
<path d="M2355 2400 c-3 -5 -1 -10 4 -10 6 0 11 5 11 10 0 6 -2 10 -4 10 -3 0
-8 -4 -11 -10z"/>
<path d="M2390 2390 c0 -5 5 -10 10 -10 6 0 10 5 10 10 0 6 -4 10 -10 10 -5 0
-10 -4 -10 -10z"/>
<path d="M2325 2360 c4 -6 11 -8 16 -5 14 9 11 15 -7 15 -8 0 -12 -5 -9 -10z"/>
<path d="M2370 2360 c0 -5 5 -10 10 -10 6 0 10 5 10 10 0 6 -4 10 -10 10 -5 0
-10 -4 -10 -10z"/>
<path d="M2340 2330 c0 -5 5 -10 10 -10 6 0 10 5 10 10 0 6 -4 10 -10 10 -5 0
-10 -4 -10 -10z"/>
<path d="M2320 2234 c0 -8 5 -12 10 -9 6 4 8 11 5 16 -9 14 -15 11 -15 -7z"/>
<path d="M2296 2211 c-4 -7 -5 -15 -2 -18 9 -9 19 4 14 18 -4 11 -6 11 -12 0z"/>
<path d="M2290 2140 c0 -5 5 -10 10 -10 6 0 10 5 10 10 0 6 -4 10 -10 10 -5 0
-10 -4 -10 -10z"/>
<path d="M2306 2111 c-4 -5 -2 -12 3 -15 5 -4 12 -2 15 3 4 5 2 12 -3 15 -5 4
-12 2 -15 -3z"/>
<path d="M2340 2100 c0 -5 5 -10 10 -10 6 0 10 5 10 10 0 6 -4 10 -10 10 -5 0
-10 -4 -10 -10z"/>
<path d="M2380 2100 c0 -5 5 -10 10 -10 6 0 10 5 10 10 0 6 -4 10 -10 10 -5 0
-10 -4 -10 -10z"/>
<path d="M2320 2070 c0 -5 5 -10 10 -10 6 0 10 5 10 10 0 6 -4 10 -10 10 -5 0
-10 -4 -10 -10z"/>
<path d="M2410 2030 c0 -5 5 -10 10 -10 6 0 10 5 10 10 0 6 -4 10 -10 10 -5 0
-10 -4 -10 -10z"/>
<path d="M2386 2011 c-4 -5 -2 -12 3 -15 5 -4 12 -2 15 3 4 5 2 12 -3 15 -5 4
-12 2 -15 -3z"/>
<path d="M1905 2437 c-5 -7 -11 -25 -11 -42 -3 -51 -15 -187 -23 -253 -4 -35
-4 -65 1 -68 4 -3 8 5 9 18 1 38 5 89 13 168 11 116 16 154 22 173 6 20 3 21
-11 4z"/>
<path d="M1650 2396 c0 -2 7 -9 15 -16 13 -11 14 -10 9 4 -5 14 -24 23 -24 12z"/>
<path d="M1862 2035 c0 -16 2 -22 5 -12 2 9 2 23 0 30 -3 6 -5 -1 -5 -18z"/>
<path d="M1855 1991 c-3 -5 -1 -12 5 -16 5 -3 10 1 10 9 0 18 -6 21 -15 7z"/>
<path d="M1850 1940 c0 -11 2 -20 4 -20 2 0 6 9 9 20 3 11 1 20 -4 20 -5 0 -9
-9 -9 -20z"/>
<path d="M1795 1830 c10 -11 20 -20 23 -20 3 0 -3 9 -13 20 -10 11 -20 20 -23
20 -3 0 3 -9 13 -20z"/>
<path d="M1775 1820 c10 -11 20 -20 23 -20 3 0 -3 9 -13 20 -10 11 -20 20 -23
20 -3 0 3 -9 13 -20z"/>
<path d="M1750 1816 c0 -2 8 -10 18 -17 15 -13 16 -12 3 4 -13 16 -21 21 -21
13z"/>
<path d="M1675 1710 c10 -11 20 -20 23 -20 3 0 -3 9 -13 20 -10 11 -20 20 -23
20 -3 0 3 -9 13 -20z"/>
<path d="M1660 1695 c13 -14 26 -25 28 -25 3 0 -5 11 -18 25 -13 14 -26 25
-28 25 -3 0 5 -11 18 -25z"/>
<path d="M1645 1680 c10 -11 20 -20 23 -20 3 0 -3 9 -13 20 -10 11 -20 20 -23
20 -3 0 3 -9 13 -20z"/>
<path d="M1655 1640 c10 -11 20 -20 23 -20 3 0 -3 9 -13 20 -10 11 -20 20 -23
20 -3 0 3 -9 13 -20z"/>
<path d="M1614 1638 c-4 -7 -3 -10 1 -5 5 4 18 -1 29 -10 21 -18 21 -18 2 5
-22 26 -23 26 -32 10z"/>
<path d="M1515 1541 c-13 -27 -13 -31 3 -48 9 -10 14 -14 10 -9 -17 21 -7 28
15 10 22 -19 22 -19 5 2 -10 11 -18 24 -18 29 0 4 8 1 18 -6 16 -13 16 -13 0
7 -25 29 -22 41 5 18 l22 -19 -19 23 c-11 12 -21 22 -22 22 -2 0 -10 -13 -19
-29z"/>
<path d="M1730 1546 c0 -2 8 -10 18 -17 15 -13 16 -12 3 4 -13 16 -21 21 -21
13z"/>
<path d="M1645 1490 c10 -11 20 -20 23 -20 3 0 -3 9 -13 20 -10 11 -20 20 -23
20 -3 0 3 -9 13 -20z"/>
<path d="M1880 1476 c0 -2 8 -10 18 -17 15 -13 16 -12 3 4 -13 16 -21 21 -21
13z"/>
<path d="M1540 1456 c0 -2 8 -10 18 -17 15 -13 16 -12 3 4 -13 16 -21 21 -21
13z"/>
<path d="M1790 1446 c0 -2 8 -10 18 -17 15 -13 16 -12 3 4 -13 16 -21 21 -21
13z"/>
<path d="M1489 1422 c5 -10 18 -25 27 -33 11 -9 9 -2 -6 19 -26 35 -36 42 -21
14z"/>
<path d="M1510 1426 c0 -2 8 -10 18 -17 15 -13 16 -12 3 4 -13 16 -21 21 -21
13z"/>
<path d="M1780 1426 c0 -2 8 -10 18 -17 15 -13 16 -12 3 4 -13 16 -21 21 -21
13z"/>
<path d="M1575 1380 c10 -11 20 -20 23 -20 3 0 -3 9 -13 20 -10 11 -20 20 -23
20 -3 0 3 -9 13 -20z"/>
<path d="M1550 1376 c0 -2 8 -10 18 -17 15 -13 16 -12 3 4 -13 16 -21 21 -21
13z"/>
<path d="M1530 1366 c0 -2 8 -10 18 -17 15 -13 16 -12 3 4 -13 16 -21 21 -21
13z"/>
<path d="M1640 1366 c0 -2 8 -10 18 -17 15 -13 16 -12 3 4 -13 16 -21 21 -21
13z"/>
<path d="M1525 1340 c10 -11 20 -20 23 -20 3 0 -3 9 -13 20 -10 11 -20 20 -23
20 -3 0 3 -9 13 -20z"/>
<path d="M1490 1346 c0 -2 8 -10 18 -17 15 -13 16 -12 3 4 -13 16 -21 21 -21
13z"/>
<path d="M1600 1346 c0 -2 8 -10 18 -17 15 -13 16 -12 3 4 -13 16 -21 21 -21
13z"/>
<path d="M1845 1320 c10 -11 20 -20 23 -20 3 0 -3 9 -13 20 -10 11 -20 20 -23
20 -3 0 3 -9 13 -20z"/>
<path d="M1590 1326 c0 -2 8 -10 18 -17 15 -13 16 -12 3 4 -13 16 -21 21 -21
13z"/>
<path d="M1676 1958 c3 -4 9 -8 15 -8 5 0 9 4 9 8 0 5 -7 9 -15 9 -8 0 -12 -4
-9 -9z"/>
<path d="M1721 1944 c0 -11 3 -14 6 -6 3 7 2 16 -1 19 -3 4 -6 -2 -5 -13z"/>
<path d="M1696 1905 c-9 -26 -7 -32 5 -12 6 10 9 21 6 23 -2 3 -7 -2 -11 -11z"/>
<path d="M1679 1844 c-12 -14 -11 -16 5 -13 11 2 21 10 24 17 5 17 -13 15 -29
-4z"/>
<path d="M2406 1911 c-4 -7 -5 -15 -2 -18 9 -9 19 4 14 18 -4 11 -6 11 -12 0z"/>
<path d="M2375 1870 c3 -5 8 -10 11 -10 2 0 4 5 4 10 0 6 -5 10 -11 10 -5 0
-7 -4 -4 -10z"/>
<path d="M2410 1870 c0 -5 7 -10 15 -10 8 0 15 5 15 10 0 6 -7 10 -15 10 -8 0
-15 -4 -15 -10z"/>
<path d="M2350 1840 c0 -5 5 -10 10 -10 6 0 10 5 10 10 0 6 -4 10 -10 10 -5 0
-10 -4 -10 -10z"/>
<path d="M2390 1840 c0 -5 4 -10 9 -10 6 0 13 5 16 10 3 6 -1 10 -9 10 -9 0
-16 -4 -16 -10z"/>
<path d="M2330 1810 c0 -5 5 -10 10 -10 6 0 10 5 10 10 0 6 -4 10 -10 10 -5 0
-10 -4 -10 -10z"/>
<path d="M2370 1810 c0 -5 5 -10 11 -10 5 0 7 5 4 10 -3 6 -8 10 -11 10 -2 0
-4 -4 -4 -10z"/>
<path d="M2410 1799 c0 -5 5 -7 10 -4 6 3 10 8 10 11 0 2 -4 4 -10 4 -5 0 -10
-5 -10 -11z"/>
<path d="M2350 1774 c0 -8 5 -12 10 -9 6 4 8 11 5 16 -9 14 -15 11 -15 -7z"/>
<path d="M2390 1770 c0 -5 5 -10 10 -10 6 0 10 5 10 10 0 6 -4 10 -10 10 -5 0
-10 -4 -10 -10z"/>
<path d="M2326 1751 c-4 -5 -2 -12 3 -15 5 -4 12 -2 15 3 4 5 2 12 -3 15 -5 4
-12 2 -15 -3z"/>
<path d="M2360 1740 c0 -5 5 -10 10 -10 6 0 10 5 10 10 0 6 -4 10 -10 10 -5 0
-10 -4 -10 -10z"/>
<path d="M2400 1740 c0 -5 5 -10 10 -10 6 0 10 5 10 10 0 6 -4 10 -10 10 -5 0
-10 -4 -10 -10z"/>
<path d="M2380 1710 c0 -5 5 -10 10 -10 6 0 10 5 10 10 0 6 -4 10 -10 10 -5 0
-10 -4 -10 -10z"/>
<path d="M2400 1670 c0 -5 5 -10 10 -10 6 0 10 5 10 10 0 6 -4 10 -10 10 -5 0
-10 -4 -10 -10z"/>
<path d="M2295 1238 c-4 -10 -13 -18 -21 -18 -8 0 -14 -4 -14 -10 0 -5 2 -10
5 -10 10 0 65 30 65 36 0 3 -4 3 -9 0 -5 -4 -11 0 -14 6 -3 9 -7 7 -12 -4z"/>
<path d="M1910 105 c-10 -11 -10 -19 -2 -27 15 -15 44 -2 40 19 -4 23 -22 27
-38 8z"/>
<path d="M2056 5035 c4 -8 8 -15 10 -15 2 0 4 7 4 15 0 8 -4 15 -10 15 -5 0
-7 -7 -4 -15z"/>
<path d="M1455 4980 c-3 -5 -1 -10 4 -10 6 0 11 5 11 10 0 6 -2 10 -4 10 -3 0
-8 -4 -11 -10z"/>
<path d="M2496 4911 c-4 -7 -5 -15 -2 -18 9 -9 19 4 14 18 -4 11 -6 11 -12 0z"/>
<path d="M1751 1191 c-15 -10 -8 -41 9 -41 15 0 25 29 14 40 -5 5 -15 5 -23 1z"/>
<path d="M1827 1193 c-14 -13 -6 -33 13 -33 13 0 20 7 20 20 0 19 -20 27 -33
13z"/>
<path d="M1501 1171 c-17 -11 -10 -46 9 -46 17 0 26 33 13 46 -4 4 -14 4 -22
0z"/>
<path d="M1573 1164 c-8 -21 13 -42 28 -27 13 13 5 43 -11 43 -6 0 -13 -7 -17
-16z"/>
<path d="M1797 1123 c-13 -12 -7 -43 7 -43 19 0 28 14 20 34 -7 17 -16 20 -27
9z"/>
<path d="M1870 1110 c0 -15 5 -20 18 -18 9 2 17 10 17 18 0 8 -8 16 -17 18
-13 2 -18 -3 -18 -18z"/>
<path d="M1701 1101 c-16 -28 -14 -30 17 -22 15 4 27 14 27 22 0 22 -33 22
-44 0z"/>
<path d="M1535 1090 c-4 -7 -3 -16 3 -22 14 -14 45 -2 40 15 -6 16 -34 21 -43
7z"/>
<path d="M1833 1044 c-8 -21 13 -42 28 -27 13 13 5 43 -11 43 -6 0 -13 -7 -17
-16z"/>
<path d="M1910 1041 c0 -15 6 -21 21 -21 25 0 22 33 -4 38 -12 2 -17 -3 -17
-17z"/>
<path d="M1500 1015 c-14 -16 -5 -35 16 -35 15 0 20 35 5 44 -5 3 -14 -1 -21
-9z"/>
<path d="M1883 974 c-8 -22 15 -44 26 -25 10 16 4 41 -10 41 -5 0 -12 -7 -16
-16z"/>
<path d="M1467 944 c-15 -15 -7 -45 11 -42 9 2 17 12 17 22 0 20 -16 31 -28
20z"/>
<path d="M1923 904 c-8 -20 13 -42 27 -28 12 12 3 44 -11 44 -5 0 -12 -7 -16
-16z"/>
<path d="M1885 830 c-8 -14 3 -30 21 -30 8 0 14 9 14 20 0 21 -24 28 -35 10z"/>
<path d="M1925 760 c-8 -14 3 -30 21 -30 8 0 14 9 14 20 0 21 -24 28 -35 10z"/>
<path d="M1933 604 c-7 -18 11 -39 26 -30 17 11 13 46 -4 46 -9 0 -18 -7 -22
-16z"/>
<path d="M1895 530 c-4 -7 -3 -16 3 -22 14 -14 45 -2 40 15 -6 16 -34 21 -43
7z"/>
<path d="M1483 344 c-7 -18 11 -39 26 -30 17 11 13 46 -4 46 -9 0 -18 -7 -22
-16z"/>
<path d="M1854 309 c-3 -6 0 -17 8 -25 13 -13 16 -13 27 0 7 8 10 20 6 26 -8
13 -32 13 -41 -1z"/>
<path d="M1770 292 c0 -24 8 -32 26 -25 22 8 17 43 -6 43 -13 0 -20 -7 -20
-18z"/>
<path d="M1527 294 c-16 -16 -7 -44 14 -44 15 0 20 5 17 22 -3 22 -19 33 -31
22z"/>
<path d="M1683 274 c-3 -8 -1 -20 4 -25 14 -14 43 0 43 22 0 24 -38 26 -47 3z"/>
<path d="M1827 244 c-15 -15 -7 -45 11 -42 9 2 17 12 17 22 0 20 -16 31 -28
20z"/>
<path d="M1733 214 c-7 -18 11 -39 26 -30 17 11 13 46 -4 46 -9 0 -18 -7 -22
-16z"/>
<path d="M1491 201 c-14 -26 10 -48 29 -26 13 16 7 45 -9 45 -6 0 -15 -9 -20
-19z"/>
<path d="M1651 206 c-14 -17 -7 -36 14 -36 22 0 29 20 13 36 -13 13 -16 13
-27 0z"/>
<path d="M1790 211 c0 -5 5 -13 10 -16 6 -3 10 -2 10 4 0 5 -4 13 -10 16 -5 3
-10 2 -10 -4z"/>
<path d="M1533 134 c-3 -8 -1 -20 5 -26 15 -15 43 8 35 28 -7 19 -32 18 -40
-2z"/>
<path d="M1614 136 c-9 -24 12 -44 28 -28 10 9 8 16 -5 29 -15 15 -17 15 -23
-1z"/>
<path d="M1584 66 c-7 -19 3 -36 22 -36 10 0 14 8 12 22 -4 26 -26 36 -34 14z"/>
<path d="M1558 3 c7 -3 16 -2 19 1 4 3 -2 6 -13 5 -11 0 -14 -3 -6 -6z"/>
</g>
</svg>
