<?xml version="1.0" encoding="UTF-8"?>
<svg xmlns="http://www.w3.org/2000/svg" xmlns:xlink="http://www.w3.org/1999/xlink" width="506.3pt" height="149.8pt" viewBox="0 0 506.3 149.8" version="1.1">
<defs>
<clipPath id="clip1">
  <path d="M 485 46 L 506.300781 46 L 506.300781 67 L 485 67 Z M 485 46 "/>
</clipPath>
<clipPath id="clip2">
  <path d="M 0 10 L 499 10 L 499 149.800781 L 0 149.800781 Z M 0 10 "/>
</clipPath>
</defs>
<g id="surface1">
<g clip-path="url(#clip1)" clip-rule="nonzero">
<path style=" stroke:none;fill-rule:evenodd;fill:rgb(0%,61.914063%,87.889099%);fill-opacity:1;" d="M 496.03125 46.351563 C 490.390625 46.351563 485.621094 50.691406 485.621094 56.574219 C 485.621094 62.511719 490.390625 66.847656 496.03125 66.847656 C 501.617188 66.847656 506.386719 62.511719 506.386719 56.574219 C 506.386719 50.691406 501.617188 46.351563 496.03125 46.351563 Z M 500.746094 54.050781 C 500.746094 51.71875 499.363281 50.691406 496.574219 50.691406 L 492.074219 50.691406 L 492.074219 62.511719 L 493.863281 62.511719 L 493.863281 57.386719 L 495.921875 57.386719 L 499.039063 62.511719 L 501.046875 62.511719 L 497.683594 57.304688 C 499.417969 57.085938 500.746094 56.167969 500.746094 54.050781 Z M 493.863281 55.867188 L 493.863281 52.207031 L 496.300781 52.207031 C 497.550781 52.207031 498.878906 52.480469 498.878906 53.941406 C 498.878906 55.757813 497.523438 55.867188 496.003906 55.867188 Z M 496.03125 65.140625 C 491.339844 65.140625 487.683594 61.507813 487.683594 56.574219 C 487.683594 51.71875 491.339844 48.0625 496.03125 48.0625 C 500.667969 48.0625 504.324219 51.71875 504.324219 56.574219 C 504.324219 61.507813 500.667969 65.140625 496.03125 65.140625 Z M 496.03125 65.140625 "/>
</g>
<g clip-path="url(#clip2)" clip-rule="nonzero">
<path style=" stroke:none;fill-rule:evenodd;fill:rgb(0%,61.914063%,87.889099%);fill-opacity:1;" d="M 222.984375 138.230469 C 222.984375 143.769531 218.453125 148.300781 212.914063 148.300781 C 207.375 148.300781 202.84375 143.769531 202.84375 138.230469 L 202.84375 52.28125 C 202.84375 46.746094 207.375 42.210938 212.914063 42.210938 C 218.453125 42.210938 222.984375 46.746094 222.984375 52.28125 L 222.984375 101.246094 L 254.09375 77.085938 C 258.464844 73.6875 264.824219 74.480469 268.222656 78.851563 C 271.625 83.226563 270.828125 89.585938 266.457031 92.984375 L 250.367188 105.480469 L 266.375 133.207031 C 269.144531 138 267.488281 144.195313 262.691406 146.960938 C 257.894531 149.730469 251.703125 148.074219 248.933594 143.277344 L 234.3125 117.949219 L 222.984375 126.75 Z M 93.214844 46.457031 L 93.214844 137.445313 C 93.214844 143.800781 98.417969 149.003906 104.773438 149.003906 C 111.132813 149.003906 116.335938 143.800781 116.335938 137.445313 L 116.335938 36.507813 C 116.335938 7.679688 70.863281 -0.0859375 58.214844 28.640625 C 45.566406 -0.0859375 0.09375 7.679688 0.09375 36.507813 L 0.09375 137.445313 C 0.09375 143.800781 5.292969 149.003906 11.652344 149.003906 C 18.011719 149.003906 23.210938 143.800781 23.210938 137.445313 L 23.210938 46.457031 C 23.210938 40.007813 28.488281 34.730469 34.9375 34.730469 C 41.253906 34.730469 46.441406 39.792969 46.652344 46.0625 L 46.652344 137.445313 C 46.652344 143.800781 51.855469 149.003906 58.214844 149.003906 C 64.570313 149.003906 69.773438 143.800781 69.773438 137.445313 L 69.773438 46.070313 C 69.980469 39.800781 75.171875 34.730469 81.492188 34.730469 C 87.9375 34.730469 93.214844 40.007813 93.214844 46.457031 Z M 449.308594 95.660156 L 449.308594 128.230469 L 488.175781 128.230469 C 493.710938 128.230469 498.246094 132.761719 498.246094 138.300781 C 498.246094 143.835938 493.710938 148.367188 488.175781 148.367188 L 439.238281 148.367188 C 433.699219 148.367188 429.167969 143.835938 429.167969 138.300781 L 429.167969 85.589844 C 429.167969 80.050781 433.699219 75.519531 439.238281 75.519531 L 488.175781 75.519531 C 493.710938 75.519531 498.246094 80.050781 498.246094 85.589844 C 498.246094 91.128906 493.710938 95.660156 488.175781 95.660156 Z M 374.996094 95.660156 L 374.996094 101.875 L 402.617188 101.875 C 408.152344 101.875 412.6875 106.40625 412.6875 111.945313 C 412.6875 117.484375 408.15625 122.015625 402.617188 122.015625 L 374.996094 122.015625 L 374.996094 128.230469 L 413.863281 128.230469 C 419.398438 128.230469 423.933594 132.761719 423.933594 138.300781 C 423.933594 143.835938 419.402344 148.367188 413.863281 148.367188 L 364.925781 148.367188 C 359.390625 148.367188 354.855469 143.835938 354.855469 138.300781 L 354.855469 85.589844 C 354.855469 80.050781 359.390625 75.519531 364.925781 75.519531 L 413.863281 75.519531 C 419.398438 75.519531 423.933594 80.050781 423.933594 85.589844 C 423.933594 91.128906 419.402344 95.660156 413.863281 95.660156 Z M 322.660156 138.226563 C 322.660156 143.765625 318.128906 148.296875 312.589844 148.296875 C 307.054688 148.296875 302.523438 143.765625 302.523438 138.226563 L 302.523438 95.660156 L 286.609375 95.660156 C 281.070313 95.660156 276.539063 91.128906 276.539063 85.589844 C 276.539063 80.050781 281.070313 75.519531 286.609375 75.519531 L 338.574219 75.519531 C 344.109375 75.519531 348.644531 80.050781 348.644531 85.589844 C 348.644531 91.128906 344.113281 95.660156 338.574219 95.660156 L 322.660156 95.660156 Z M 146.984375 95.660156 L 146.984375 101.875 L 174.609375 101.875 C 180.144531 101.875 184.675781 106.40625 184.675781 111.945313 C 184.675781 117.484375 180.144531 122.015625 174.609375 122.015625 L 146.984375 122.015625 L 146.984375 128.230469 L 185.851563 128.230469 C 191.390625 128.230469 195.921875 132.761719 195.921875 138.300781 C 195.921875 143.835938 191.390625 148.367188 185.851563 148.367188 L 136.917969 148.367188 C 131.378906 148.367188 126.847656 143.835938 126.847656 138.300781 L 126.847656 85.589844 C 126.847656 80.050781 131.378906 75.519531 136.917969 75.519531 L 185.851563 75.519531 C 191.390625 75.519531 195.921875 80.050781 195.921875 85.589844 C 195.921875 91.128906 191.390625 95.660156 185.851563 95.660156 Z M 146.984375 95.660156 "/>
</g>
</g>
</svg>
